<svg xmlns="http://www.w3.org/2000/svg" viewBox="0 0 357.98 69.31">
  <defs>
    <style>
      .logo-blue {
        fill: #0e94d7;
      }

      .logo-light-yellow {
        fill: #fff294;
      }

      .logo-white {
        fill: #fff;
      }

      .logo-orange {
        fill: #ff9300;
      }

      .logo-yellow {
        fill: #ffcf00;
      }

      .logo-brown {
        fill: #d49e6c;
      }

      .logo-dark-brown {
        fill: #b68052;
      }
    </style>
  </defs>
  <title>CADETS</title>
  <g id="e8dd9388-2f6b-4616-9552-29c15f9a7411" data-name="Elements">
    <g>
      <path class="logo-blue" d="M0,35.13C0,12.48,11.62,0,29.66,0,42,0,49.82,5,54.72,15.74L42.14,22.27C40.41,16.7,36.86,13,29.66,13c-8.54,0-14.21,5.76-14.21,16.32V40c0,10.56,5.67,16.32,14.21,16.32,7.2,0,11.33-4.51,13.34-10l11.91,6.92c-5,10.17-13,16-25.25,16C11.62,69.31,0,57.79,0,35.13Z"/>
      <path class="logo-blue" d="M105.6,68.16l-4.8-15.94H78.43l-4.8,15.94H58.85l22.07-67H99l21.79,67ZM89.76,14.4h-.48L81.89,39.84H97.24Z"/>
      <path class="logo-blue" d="M130.08,1.15h25.25c17.75,0,29.46,11.23,29.46,33.5s-11.71,33.51-29.46,33.51H130.08ZM155.33,55.2c8.63,0,14-4.71,14-15.36V29.47c0-10.65-5.38-15.36-14-15.36H144.67V55.2Z"/>
      <path class="logo-blue" d="M283.19,14.11V68.16H268.6v-54H250.46v-13h50.88v13Z"/>
      <path class="logo-blue" d="M306.43,58.46l9.6-9.7a21.82,21.82,0,0,0,16.8,7.68c7.1,0,10.56-3.16,10.56-8.06,0-3.65-1.54-6.34-7.78-7.2L329,40.32c-14.11-1.83-20.54-8.74-20.54-20,0-12,9.4-20.35,25.15-20.35,10.07,0,17.75,3.36,23.23,9.41l-9.7,9.79c-3.17-3.74-7.49-6.34-14.4-6.34-6.53,0-9.69,2.5-9.69,6.53,0,4.61,2.4,6.34,8,7.2l6.63,1.06C351.35,29.85,358,36,358,47.52c0,12.86-9.41,21.79-26.11,21.79C320.16,69.31,312.19,64.8,306.43,58.46Z"/>
      <g>
        <path class="logo-light-yellow" d="M227,8H210.31a4,4,0,0,0,1.05,1.73h16.72A4.08,4.08,0,0,1,227,8Z"/>
        <path class="logo-light-yellow" d="M228.08,4H211.36a4,4,0,0,0-1.05,1.73H227A4,4,0,0,1,228.08,4Z"/>
        <path class="logo-white" d="M228.08,9.73h6.45a4.52,4.52,0,0,1-1.64-3.16A3.64,3.64,0,0,1,234.06,4h-6a4,4,0,0,0-1,1.73h2.2a1.13,1.13,0,0,1,1.13,1.12,1.14,1.14,0,0,1-.33.8,1.16,1.16,0,0,1-.8.33H227A4.08,4.08,0,0,0,228.08,9.73Z"/>
        <path class="logo-light-yellow" d="M228.08,60.39H211.36a4,4,0,0,0-1.05,1.73H227A4,4,0,0,1,228.08,60.39Z"/>
        <path class="logo-light-yellow" d="M227,64.37H210.31a4,4,0,0,0,1.05,1.72h16.72A4,4,0,0,1,227,64.37Z"/>
        <path class="logo-white" d="M227,62.12h2.2a1.13,1.13,0,0,1,1.13,1.12,1.13,1.13,0,0,1-1.13,1.13H227a4,4,0,0,0,1,1.72h6.45a4.48,4.48,0,0,1-1.64-3.16,3.6,3.6,0,0,1,1.17-2.54h-6A4,4,0,0,0,227,62.12Z"/>
        <path class="logo-light-yellow" d="M201.9,41.39h29.31a12.51,12.51,0,0,1-3.43-2.85H226.1a1.12,1.12,0,0,1-.33.79,1.16,1.16,0,0,1-.8.33H200.43v1.79a1,1,0,0,0,.39.78A1.12,1.12,0,0,1,201.9,41.39Z"/>
        <path class="logo-light-yellow" d="M226.1,30.58h1.68a12.51,12.51,0,0,1,3.43-2.85H201.9a1.11,1.11,0,0,1-1.08-.85,1,1,0,0,0-.39.79v1.78H225A1.14,1.14,0,0,1,226.1,30.58Z"/>
        <path class="logo-light-yellow" d="M217.22,33.43a4.06,4.06,0,0,1,1.05-1.73H190a1.12,1.12,0,0,1-1.13-1.12h-2.52a1.11,1.11,0,0,1-1.12,1.12h-2.78a4,4,0,0,0-1,1.73Z"/>
        <path class="logo-light-yellow" d="M218.27,37.41a4,4,0,0,1-1.05-1.73H181.38a3.93,3.93,0,0,0,1,1.73Z"/>
        <path class="logo-white" d="M227.78,30.58H226.1A1.11,1.11,0,0,1,225,31.7h-6.7a4.06,4.06,0,0,0-1.05,1.73h5.36a1.12,1.12,0,0,1,.8,1.92,1.08,1.08,0,0,1-.8.33h-5.36a4,4,0,0,0,1.05,1.73H225a1.13,1.13,0,0,1,1.13,1.13h1.68a6.35,6.35,0,0,1-1.55-4A6.33,6.33,0,0,1,227.78,30.58Z"/>
        <path class="logo-orange" d="M162.12,35.68a1.13,1.13,0,0,0,1.13-1.12,1.14,1.14,0,0,0-1.13-1.13H151a1.13,1.13,0,1,0,0,2.25Z"/>
        <path class="logo-yellow" d="M217.22,35.68h5.36a1.08,1.08,0,0,0,.8-.33,1.12,1.12,0,0,0-.8-1.92H166.89a1.13,1.13,0,0,0,0,2.25h50.33Z"/>
        <path class="logo-orange" d="M186,31.38a1.12,1.12,0,0,0,.33-.8h0a1.13,1.13,0,0,0-1.12-1.13H182a1.13,1.13,0,0,0,0,2.25h3.19A1.11,1.11,0,0,0,186,31.38Z"/>
        <path class="logo-yellow" d="M190,31.7h35a1.11,1.11,0,0,0,1.13-1.12A1.14,1.14,0,0,0,225,29.45H190a1.13,1.13,0,0,0-1.13,1.13h0A1.12,1.12,0,0,0,190,31.7Z"/>
        <path class="logo-orange" d="M197.13,27.73a1.13,1.13,0,0,0,0-2.25h-1.59a1.13,1.13,0,1,0,0,2.25Z"/>
        <path class="logo-yellow" d="M201.9,27.73h29.31a15.31,15.31,0,0,1,7.29-2.17h.44a1.12,1.12,0,0,0-.44-.09H201.9a1.12,1.12,0,0,0-1.12,1.12.86.86,0,0,0,0,.28A1.11,1.11,0,0,0,201.9,27.73Z"/>
        <path class="logo-orange" d="M197.92,43.31a1.12,1.12,0,0,0-.79-1.92h-1.59a1.13,1.13,0,1,0,0,2.25h1.59A1.12,1.12,0,0,0,197.92,43.31Z"/>
        <path class="logo-yellow" d="M238.5,43.56a15.43,15.43,0,0,1-7.29-2.17H201.9a1.12,1.12,0,0,0-1.08.84.9.9,0,0,0,0,.28,1.13,1.13,0,0,0,1.12,1.13h36.6a1.12,1.12,0,0,0,.44-.09h-.44Z"/>
        <path class="logo-orange" d="M169.28,37.41a1.13,1.13,0,0,0,0,2.25h3.19a1.12,1.12,0,0,0,.79-.33,1.08,1.08,0,0,0,.33-.79,1.12,1.12,0,0,0-1.12-1.13Z"/>
        <path class="logo-yellow" d="M225.77,39.33a1.12,1.12,0,0,0-.8-1.92H177.24a1.13,1.13,0,1,0,0,2.25H225A1.16,1.16,0,0,0,225.77,39.33Z"/>
        <path class="logo-orange" d="M195.83,8a1.16,1.16,0,0,0,.8-.33,1.14,1.14,0,0,0,.33-.8,1.13,1.13,0,0,0-1.13-1.12h-7.16a1.13,1.13,0,1,0,0,2.25Z"/>
        <path class="logo-yellow" d="M210.31,8h18.93a1.16,1.16,0,0,0,.8-.33,1.14,1.14,0,0,0,.33-.8,1.13,1.13,0,0,0-1.13-1.12H200.6a1.13,1.13,0,0,0,0,2.25Z"/>
        <path class="logo-orange" d="M204.58,4a1.12,1.12,0,0,0,.79-.33,1.08,1.08,0,0,0,.33-.79,1.12,1.12,0,0,0-1.12-1.13h-8a1.13,1.13,0,0,0,0,2.25Z"/>
        <path class="logo-yellow" d="M234.06,4a8.46,8.46,0,0,1,5.52-2.25H209.36a1.13,1.13,0,1,0,0,2.25h24.7Z"/>
        <path class="logo-orange" d="M205.38,11.65a1.16,1.16,0,0,0,.33-.8,1.13,1.13,0,0,0-1.13-1.12h-7.16a1.13,1.13,0,0,0,0,2.25h7.16A1.16,1.16,0,0,0,205.38,11.65Z"/>
        <path class="logo-yellow" d="M234.53,9.73H209.35a1.13,1.13,0,0,0,0,2.25h29.44a1.26,1.26,0,0,0,.27,0A8.75,8.75,0,0,1,234.53,9.73Z"/>
        <path class="logo-orange" d="M196.63,64a1.16,1.16,0,0,0,.33-.8,1.13,1.13,0,0,0-1.13-1.12h-7.16a1.13,1.13,0,1,0,0,2.25h7.16A1.16,1.16,0,0,0,196.63,64Z"/>
        <path class="logo-yellow" d="M229.24,64.37a1.13,1.13,0,0,0,1.13-1.13,1.13,1.13,0,0,0-1.13-1.12H200.6a1.13,1.13,0,0,0,0,2.25h28.64Z"/>
        <path class="logo-orange" d="M195.5,59.26a1.12,1.12,0,0,0,1.13,1.13h8a1.12,1.12,0,0,0,.79-.33,1.1,1.1,0,0,0,.33-.8,1.12,1.12,0,0,0-1.12-1.12h-8A1.12,1.12,0,0,0,195.5,59.26Z"/>
        <path class="logo-yellow" d="M234.06,60.39a8.46,8.46,0,0,1,5.52-2.25H209.36a1.13,1.13,0,1,0,0,2.25h24.7Z"/>
        <path class="logo-orange" d="M197.42,66.09a1.13,1.13,0,0,0,0,2.25h7.16a1.11,1.11,0,0,0,1.13-1.12,1.14,1.14,0,0,0-1.13-1.13Z"/>
        <path class="logo-yellow" d="M234.53,66.09H209.35a1.13,1.13,0,0,0,0,2.25h29.44a1.24,1.24,0,0,0,.27,0A8.69,8.69,0,0,1,234.53,66.09Z"/>
        <path class="logo-brown" d="M238.94,25.57h-.44a9.38,9.38,0,0,1,1.68.16,8.88,8.88,0,0,0-7.47,8.2,9.2,9.2,0,0,0,7.12,9.53c-.32,0-.65.08-1,.1h.09a9,9,0,0,0,0-18Z"/>
        <path class="logo-dark-brown" d="M231.21,27.73a12.51,12.51,0,0,0-3.43,2.85,6.33,6.33,0,0,0-1.55,4,6.35,6.35,0,0,0,1.55,4,12.51,12.51,0,0,0,3.43,2.85,15.43,15.43,0,0,0,7.29,2.17h.35c.33,0,.66,0,1-.1a9.2,9.2,0,0,1-7.12-9.53,8.88,8.88,0,0,1,7.47-8.2,9.38,9.38,0,0,0-1.68-.16A15.31,15.31,0,0,0,231.21,27.73Z"/>
        <path class="logo-brown" d="M240.38,2.54A6,6,0,0,0,237,5a4.71,4.71,0,0,0,2.07,6.72c.17.07.35.15.53.21h0a5.11,5.11,0,0,0,3.58-1.54,5.1,5.1,0,0,0,1.53-3.57,5.25,5.25,0,0,0-4.82-5.09,4.91,4.91,0,0,1,1.85.51A7.54,7.54,0,0,0,240.38,2.54Z"/>
        <path class="logo-brown" d="M239.58,1.77h0Z"/>
        <path class="logo-dark-brown" d="M234.06,4a3.64,3.64,0,0,0-1.17,2.55,4.52,4.52,0,0,0,1.64,3.16,8.75,8.75,0,0,0,4.53,2.21,4.92,4.92,0,0,0,.52,0h0c-.18-.06-.36-.14-.53-.21A4.71,4.71,0,0,1,237,5a6,6,0,0,1,3.35-2.5,7,7,0,0,1,1.35-.25,4.91,4.91,0,0,0-1.85-.51h-.29A8.46,8.46,0,0,0,234.06,4Z"/>
        <path class="logo-brown" d="M241.72,58.66a6.74,6.74,0,0,0-1.34.25,6,6,0,0,0-3.36,2.5,4.71,4.71,0,0,0,2.07,6.72l.53.21h0a5.23,5.23,0,0,0,5.11-5.1,5.25,5.25,0,0,0-4.82-5.09A4.91,4.91,0,0,1,241.72,58.66Z"/>
        <path class="logo-brown" d="M239.87,58.15h0Z"/>
        <path class="logo-dark-brown" d="M239.09,68.13A4.71,4.71,0,0,1,237,61.41a6,6,0,0,1,3.35-2.5,7,7,0,0,1,1.35-.25,4.91,4.91,0,0,0-1.85-.51h-.29a8.46,8.46,0,0,0-5.52,2.25,3.6,3.6,0,0,0-1.17,2.54,4.48,4.48,0,0,0,1.64,3.16,8.69,8.69,0,0,0,4.53,2.22l.52,0h0Z"/>
      </g>
    </g>
  </g>
</svg>
