<svg xmlns="http://www.w3.org/2000/svg" viewBox="0 0 30.01 30">
  <defs>
    <style>
      .ac3623c6-dd8c-4b45-97aa-312683496ef3 {
        fill: #ffffff;
      }
    </style>
  </defs>
  <title>loupe</title>
  <g id="f83e7dee-0841-4e55-a19c-bf6b6cf27951" data-name="Elements">
    <g>
      <path class="ac3623c6-dd8c-4b45-97aa-312683496ef3" d="M26.82,3.18A10.89,10.89,0,0,0,10.9,18l-1.3,1.3L8.28,18a.76.76,0,0,0-1.09,0L1,24.18A3.4,3.4,0,0,0,1,29a3.36,3.36,0,0,0,2.41,1,3.36,3.36,0,0,0,2.41-1L12,22.81a.76.76,0,0,0,0-1.09L10.69,20.4,12,19.1A10.89,10.89,0,0,0,26.82,3.18ZM4.73,27.91a1.87,1.87,0,1,1-2.64-2.64l3.45-3.46,2.65,2.65Zm4.55-4.55L6.64,20.72l1.09-1.1,2.65,2.65Zm16.45-5.88a9.36,9.36,0,1,1,2.73-6.6A9.34,9.34,0,0,1,25.73,17.48Z"/>
      <path class="ac3623c6-dd8c-4b45-97aa-312683496ef3" d="M24.45,5.55a7.53,7.53,0,1,0,0,10.66h0A7.54,7.54,0,0,0,24.45,5.55Zm-1.09,9.57a6,6,0,1,1,0-8.48A6,6,0,0,1,23.36,15.12Z"/>
      <path class="ac3623c6-dd8c-4b45-97aa-312683496ef3" d="M22,8a4.08,4.08,0,0,0-5.75,0,.77.77,0,0,0,1.09,1.1,2.5,2.5,0,0,1,3.56,0,.77.77,0,0,0,.55.22A.77.77,0,0,0,22,8Z"/>
    </g>
  </g>
</svg>
